Coordinates
version=1
nRows=8
nColumns=36
inDegrees=yes

Units are S.I. units (second, meters, Newtons, ...)
If the header above contains a line with 'inDegrees', this indicates whether rotational values are in degrees (yes) or radians (no).

endheader
time	pelvis_tilt	pelvis_list	pelvis_rotation	pelvis_tx	pelvis_ty	pelvis_tz	hip_flexion_r	hip_adduction_r	hip_rotation_r	knee_angle_r	knee_angle_r_beta	ankle_angle_r	subtalar_angle_r	mtp_angle_r	hip_flexion_l	hip_adduction_l	hip_rotation_l	knee_angle_l	knee_angle_l_beta	ankle_angle_l	subtalar_angle_l	mtp_angle_l	lumbar_extension	lumbar_bending	lumbar_rotation	arm_flex_r	arm_add_r	arm_rot_r	elbow_flex_r	pro_sup_r	arm_flex_l	arm_add_l	arm_rot_l	elbow_flex_l	pro_sup_l
      0.67000000	     -1.59642923	      1.95797632	     -1.86294034	      0.79412831	      0.94100874	     -0.17563746	     -3.48883304	     -3.24324128	     -7.02847620	     43.93801076	      0.76686295	     -3.87592953	     -2.37069077	     -7.16874475	     20.91413610	      4.56062043	    -10.58306413	     16.21280925	      0.28296690	      0.86112717	    -10.96033593	     -7.16874475	     -2.53234025	     -5.81103758	     10.24990815	      8.33315685	     -3.23733222	     -9.69399894	     45.50660031	    106.45282879	    -20.68718720	     -1.91391815	    -33.28829373	     18.38629686	     97.84761843
      0.68000000	     -1.63980825	      2.50093907	     -1.74775671	      0.80514935	      0.94136143	     -0.17710865	     -1.38400033	     -4.50354917	     -7.31923907	     47.98084252	      0.83742368	     -5.79377614	     -3.40920791	     -7.17398698	     20.21478641	      5.27468390	    -10.73095467	     16.22529924	      0.28318489	      1.76292735	    -10.66601332	     -7.17398698	     -2.50819650	     -6.47837583	      9.56045241	      7.98697698	     -3.11068092	     -9.32387311	     45.17351441	    106.43609622	    -19.80791915	     -1.99124482	    -33.04292776	     18.72671577	     98.12775126
      0.69000000	     -1.65622646	      2.95905870	     -1.62537058	      0.81577963	      0.94170023	     -0.17835657	      0.71286071	     -5.53272664	     -7.35863838	     51.80918240	      0.90424082	     -7.28849139	     -5.06900381	     -7.18771870	     19.55169417	      5.85319697	    -10.98270286	     16.38121836	      0.28590620	      2.84968918	     -9.97675834	     -7.18771870	     -2.58966823	     -7.06502458	      8.76548504	      7.77327442	     -2.99092538	     -8.79526781	     44.77255355	    106.36910723	    -18.86367895	     -2.10657356	    -32.62743231	     19.01104232	     98.68012040
      0.70000000	     -1.60626929	      3.46923275	     -1.46661366	      0.82624488	      0.94213737	     -0.17966583	      2.74735341	     -6.67731120	     -7.51149538	     55.48728955	      0.96843590	     -7.54332780	     -6.00999930	     -7.19109770	     18.67291184	      6.57797255	    -10.97177890	     16.16931430	      0.28220777	      3.60765281	     -9.84154511	     -7.19109770	     -2.80997225	     -7.72711050	      8.00684729	      7.49099302	     -2.80390333	     -8.63989404	     44.58263868	    106.34802835	    -17.70401337	     -2.26997832	    -32.40140589	     19.35710716	     98.82007128
      0.71000000	     -1.60273654	      3.81795322	     -1.34148586	      0.83635542	      0.94259593	     -0.18082860	      4.86100136	     -7.52186997	     -7.46717529	     58.89947224	      1.02798972	     -7.26109566	     -7.20903274	     -7.19362707	     17.88627035	      7.11422619	    -10.87838169	     16.02533274	      0.27969482	      4.22858039	     -9.65335762	     -7.19362707	     -3.01237912	     -8.21945445	      7.26930362	      7.27182847	     -2.65960501	     -8.49410429	     44.33878292	    106.32777583	    -16.46601774	     -2.38937254	    -32.11802901	     19.74019523	     98.93110052
      0.72000000	     -1.85976815	      4.17587058	     -1.22124960	      0.84649577	      0.94284770	     -0.18198075	      7.27252379	     -8.33386041	     -7.38512832	     62.03138048	      1.08265183	     -6.42333573	     -8.81473881	     -7.19673582	     17.31177372	      7.65185254	    -10.89346120	     15.72895480	      0.27452205	      4.93404917	     -9.42165389	     -7.19673582	     -2.83887198	     -8.67220571	      6.58686316	      6.92407846	     -2.52064413	     -8.31700096	     43.95086750	    106.29715757	    -15.23045358	     -2.56775098	    -31.70412080	     20.13237057	     99.04178254
      0.73000000	     -2.25179376	      4.30017771	     -1.08621213	      0.85642398	      0.94308737	     -0.18307113	      9.81793430	     -8.75679110	     -7.22841477	     64.76775180	      1.13041052	     -5.44692692	    -10.49966568	     -7.20254069	     16.93125778	      7.91247012	    -10.98705882	     15.50524166	      0.27061752	      5.61511503	     -9.02992364	     -7.20254069	     -2.46462033	     -8.84068247	      5.95723115	      6.60162578	     -2.48510572	     -8.13099201	     43.41162713	    106.23588735	    -13.98720506	     -2.81275378	    -30.89396762	     20.43048341	     99.15616818
      0.74000000	     -2.48075511	      4.34949304	     -0.98400130	      0.86613587	      0.94379980	     -0.18405466	     12.12805755	     -9.03495503	     -7.05297181	     67.02147912	      1.16974548	     -4.46019248	    -11.91058453	     -7.20827399	     16.35201234	      8.09855982	    -10.90253969	     15.24187071	      0.26602083	      6.27339656	     -8.66864716	     -7.20827399	     -2.41291666	     -8.95470538	      5.28638915	      6.33908507	     -2.34623702	     -8.01026955	     42.93132672	    106.16848978	    -12.53526931	     -3.00924145	    -29.94932196	     20.65053627	     99.21650229
